<?xml version="1.0" encoding="UTF-8" standalone="no"?> <!-- Created with Vectornator for iOS (http://vectornator.io/) --><!DOCTYPE svg PUBLIC "-//W3C//DTD SVG 1.1//EN" "http://www.w3.org/Graphics/SVG/1.1/DTD/svg11.dtd">
<svg height="100%" style="fill-rule:nonzero;clip-rule:evenodd;stroke-linecap:round;stroke-linejoin:round;" xmlns:xlink="http://www.w3.org/1999/xlink" xmlns="http://www.w3.org/2000/svg" xml:space="preserve" width="100%" xmlns:vectornator="http://vectornator.io" version="1.1" viewBox="0 0 120 70">
<metadata>
<vectornator:setting key="DimensionsVisible" value="1"/>
<vectornator:setting key="PencilOnly" value="0"/>
<vectornator:setting key="SnapToPoints" value="0"/>
<vectornator:setting key="GuidesVisible" value="1"/>
<vectornator:setting key="OutlineMode" value="0"/>
<vectornator:setting key="RulersVisible" value="1"/>
<vectornator:setting key="SnapToEdges" value="0"/>
<vectornator:setting key="CMYKEnabledKey" value="0"/>
<vectornator:setting key="DisplayWhiteBackground" value="0"/>
<vectornator:setting key="doHistoryDisabled" value="0"/>
<vectornator:setting key="SnapToGuides" value="1"/>
<vectornator:setting key="TimeLapseWatermarkDisabled" value="0"/>
<vectornator:setting key="Units" value="Points"/>
<vectornator:setting key="IsolateActiveLayer" value="0"/>
<vectornator:setting key="DynamicGuides" value="0"/>
<vectornator:setting key="SnapToGrid" value="0"/>
</metadata>
<defs/>
<g id="Untitled" vectornator:layerName="Untitled">
<path stroke="#000a39" stroke-width="1" d="M-1.61713-2.414L120.871-2.414L120.871+71.1387L-1.61713+71.1387L-1.61713-2.414Z" fill="#000a39" stroke-linecap="round" opacity="1" stroke-linejoin="round"/>
<path d="M18.2+21.3L21.8+21.3L21.8+16.5L23.6+16.5L23.6+21.3L28.1+21.3L28.1+23L23.6+23L23.6+30.5C23.6+31+23.8+31.2+24.2+31.2L27.5+31.2L27.5+32.9L23.6+32.9C23.1+32.9+22.6+32.7+22.3+32.4C22+32.1+21.8+31.6+21.8+31.1L21.8+23L18.2+23C18.2+23+18.2+21.3+18.2+21.3Z" opacity="1" fill="#ce48ff"/>
<path d="M34+21.3L38.2+21.3L38.2+22.8L38.5+22.8C38.8+22.2+39.2+21.7+39.8+21.4C40.3+21.1+41+20.9+41.7+20.9C42.9+20.9+43.8+21.3+44.5+22C45.2+22.8+45.6+23.9+45.6+25.3L43.7+25.6C43.7+24.5+43.4+23.8+42.9+23.3C42.4+22.8+41.8+22.6+41+22.6C40.5+22.6+40.1+22.7+39.8+22.9C39.5+23.1+39.2+23.3+38.9+23.7C38.7+24+38.5+24.4+38.4+24.8C38.3+25.2+38.2+25.7+38.2+26.2L38.2+31.1L41.1+31.1L41.1+32.8L33.7+32.8L33.7+31.1L36.4+31.1L36.4+23L34+23L34+21.3Z" opacity="1" fill="#ce48ff"/>
<path d="M58+21.3L59.8+21.3L59.8+32.9L58+32.9L58+30.8L57.7+30.8C57.3+31.5+56.8+32.1+56.2+32.6C55.6+33+54.8+33.3+53.9+33.3C53.3+33.3+52.7+33.2+52.1+33C51.6+32.8+51.1+32.5+50.7+32.1C50.3+31.7+50+31.2+49.8+30.5C49.6+29.9+49.5+29.2+49.5+28.3L49.5+21.4L51.3+21.4L51.3+28C51.3+29.2+51.5+30.1+52+30.7C52.5+31.3+53.3+31.5+54.3+31.5C55.4+31.5+56.3+31.1+56.9+30.4C57.5+29.6+57.8+28.6+57.8+27.4L57.8+21.3L58+21.3Z" opacity="1" fill="#ce48ff"/>
<path d="M67.2+24.3C67.2+24.9+67.4+25.3+67.9+25.6C68.4+25.9+69.2+26.1+70.5+26.2C71.9+26.3+72.9+26.6+73.6+27.2C74.3+27.7+74.7+28.5+74.7+29.5L74.7+29.6C74.7+30.2+74.6+30.7+74.4+31.1C74.2+31.5+73.9+31.9+73.5+32.2C73.1+32.5+72.6+32.7+72.1+32.9C71.5+33.1+70.9+33.1+70.2+33.1C69.3+33.1+68.5+33+67.9+32.7C67.3+32.5+66.7+32.1+66.3+31.7C65.9+31.3+65.5+30.9+65.3+30.3C65.1+29.8+65+29.3+64.9+28.8L66.6+28.4C66.7+29.3+67+30+67.6+30.5C68.2+31+69+31.3+70+31.3C70.9+31.3+71.5+31.1+72.1+30.8C72.6+30.5+72.9+30+72.9+29.4C72.9+28.7+72.6+28.3+72.1+28C71.6+27.7+70.8+27.5+69.6+27.5C68.3+27.4+67.2+27.1+66.5+26.6C65.8+26.1+65.4+25.3+65.4+24.3L65.4+24.2C65.4+23.7+65.5+23.2+65.8+22.8C66+22.4+66.3+22+66.7+21.8C67.1+21.5+67.5+21.3+68+21.2C68.5+21.1+69+21+69.6+21C70.4+21+71+21.1+71.6+21.3C72.2+21.5+72.7+21.8+73+22.1C73.4+22.4+73.7+22.8+73.9+23.3C74.1+23.7+74.2+24.2+74.3+24.6L72.7+25C72.6+24.3+72.3+23.7+71.8+23.2C71.3+22.8+70.6+22.6+69.8+22.6C69.5+22.6+69.2+22.6+68.9+22.7C68.6+22.8+68.3+22.9+68.1+23C67.9+23.1+67.7+23.3+67.5+23.5C67.3+23.8+67.2+24+67.2+24.3Z" opacity="1" fill="#ce48ff"/>
<path d="M79.4+21.3L83+21.3L83+16.5L84.8+16.5L84.8+21.3L89.3+21.3L89.3+23L84.8+23L84.8+30.5C84.8+31+85+31.2+85.4+31.2L88.7+31.2L88.7+32.9L84.8+32.9C84.3+32.9+83.8+32.7+83.5+32.4C83.2+32+83+31.6+83+31.1L83+23L79.4+23C79.4+23+79.4+21.3+79.4+21.3Z" opacity="1" fill="#ce48ff"/>
<path d="M97.8+31.6C97.8+31.1+98+30.8+98.3+30.4C98.6+30.1+99+29.9+99.5+29.9C100+29.9+100.3+30.1+100.7+30.4C101+30.7+101.2+31.1+101.2+31.6C101.2+32.1+101+32.4+100.7+32.8C100.4+33.1+100+33.3+99.5+33.3C99+33.3+98.7+33.1+98.3+32.8C98+32.4+97.8+32+97.8+31.6ZM100.4+16.6L100.4+28.6L98.5+28.6L98.5+16.6L100.4+16.6Z" opacity="1" fill="#ce48ff"/>
<path d="M21.5+40L27+48.9L27.4+48.9L27.4+40L30.4+40L30.4+53.2L26.1+53.2L20.6+44.3L20.1+44.3L20.1+53.2L17.1+53.2L17.1+40L21.5+40Z" opacity="1" fill="#2eafff"/>
<path d="M42.4+40L42.4+42.7L39.6+42.7L39.6+50.5L42.4+50.5L42.4+53.2L33.6+53.2L33.6+50.5L36.4+50.5L36.4+42.7L33.6+42.7L33.6+40L42.4+40Z" opacity="1" fill="#2eafff"/>
<path d="M51.9+39.8C55.8+39.8+58.3+41.6+58.3+44.9L58.3+45.2L55+45.2L55+45C55+43.5+54+42.7+51.9+42.7L51.5+42.7C49.5+42.7+48.3+43.6+48.3+45.5L48.3+47.9C48.3+49.9+49.5+50.7+51.5+50.7L51.9+50.7C54+50.7+55.1+49.8+55.1+48.3L55.1+48L58.4+48L58.4+48.2C58.4+51.6+55.9+53.4+51.9+53.4L51.5+53.4C47.7+53.4+45+51.6+45+47.8L45+45.4C45+41.7+47.6+39.8+51.5+39.8C51.5+39.8+51.9+39.8+51.9+39.8Z" opacity="1" fill="#2eafff"/>
<path d="M64.8+40L64.8+45.1L65.4+45.1L70.3+40L74.1+40L68.3+46L68.3+46.7L74.3+53.2L70.3+53.2L65.3+47.8L64.7+47.8L64.7+53.2L61.5+53.2L61.5+40L64.8+40Z" opacity="1" fill="#2eafff"/>
<path d="M82.6+39.8C86.4+39.8+89.2+41.8+89.2+45.5L89.2+47.8C89.2+51.5+86.4+53.4+82.6+53.4L82.1+53.4C78.2+53.4+75.4+51.4+75.4+47.8L75.4+45.5C75.4+41.8+78.2+39.8+82.1+39.8L82.6+39.8ZM78.6+45.6L78.6+47.7C78.6+49.6+79.9+50.6+82+50.6L82.5+50.6C84.6+50.6+85.9+49.6+85.9+47.7L85.9+45.6C85.9+43.7+84.6+42.7+82.5+42.7L82+42.7C79.9+42.7+78.6+43.7+78.6+45.6Z" opacity="1" fill="#2eafff"/>
<path d="M95.6+40L95.6+50.5L102.8+50.5L102.8+53.2L92.4+53.2L92.4+40L95.6+40Z" opacity="1" fill="#2eafff"/>
</g>
</svg>
